<?xml version="1.0" encoding="UTF-8"?>
<svg id="Layer_1" data-name="Layer 1" xmlns="http://www.w3.org/2000/svg" viewBox="0 0 327.05 326.91">
  <defs>
    <style>
      .cls-1 {
        fill: #69b2a5;
      }

      .cls-2 {
        fill: #133f6b;
      }
    </style>
  </defs>
  <path class="cls-1" d="M272.69,326.87c-32.28,1.24-58.82-24.55-58.82-56.54,0-16.48,7.98-30.36,18.3-41.63,15.56-17,25.82-38.56,25.82-64.88,0-14.27-3.93-42.94-27.87-66.88-23.94-23.94-52.61-27.87-66.88-27.87-26.32,0-47.87,10.27-64.88,25.82-11.27,10.31-25.15,18.3-41.63,18.3-31.99,0-57.78-26.55-56.54-58.82C1.33,24.81,26.13.54,55.7,0c16.7-.29,31.16,7.24,42.3,17.9,7.4,7.08,29.47,26.25,65.25,26.25,35.19,0,56.86-18.61,65.24-26.24C240.83,6.65,256.67-1.42,275.06.25c13.54,1.23,25.83,7.45,34.98,16.77,9.32,9.14,15.54,21.44,16.77,34.98,1.67,18.39-6.4,34.23-17.67,46.58-7.63,8.37-26.24,30.05-26.24,65.24,0,35.78,19.17,57.84,26.25,65.25,10.66,11.13,18.19,25.6,17.9,42.3-.53,29.57-24.8,54.37-54.35,55.51Z"/>
  <circle class="cls-2" cx="163.38" cy="163.25" r="56.59"/>
  <circle class="cls-2" cx="56.59" cy="270.05" r="56.59"/>
</svg>